<svg xmlns="http://www.w3.org/2000/svg" viewBox="0 0 24 24" width="24" height="24">
  <title>Aleph-0</title>
  <path fill="currentColor" fill-rule="evenodd" d="M14.245 16.405 L12.204 16.405 L6.121 9.546 C5.664 9.739 5.295 9.944 5.016 10.163 C4.738 10.382 4.519 10.649 4.359 10.965 C4.2 11.28 4.084 11.658 4.011 12.1 C3.938 12.541 3.882 13.08 3.842 13.717 L3.663 16.405 L2 16.405 L2.199 13.717 C2.239 13.093 2.307 12.521 2.403 12 C2.499 11.479 2.66 11.008 2.886 10.586 C3.112 10.165 3.414 9.787 3.792 9.451 C4.17 9.116 4.665 8.823 5.275 8.57 L2.05 4.987 L4.16 4.987 L8.879 10.333 C9.576 10.153 10.127 9.939 10.532 9.69 C10.936 9.442 11.247 9.154 11.462 8.829 C11.678 8.504 11.827 8.139 11.91 7.734 C11.993 7.329 12.061 6.878 12.114 6.38 L12.264 4.987 L13.926 4.987 L13.797 6.311 C13.724 7.041 13.593 7.681 13.404 8.232 C13.215 8.783 12.957 9.262 12.632 9.67 C12.307 10.079 11.91 10.422 11.443 10.701 C10.975 10.98 10.425 11.209 9.795 11.388 Z M18.884 19.013 C17.962 19.013 17.245 18.65 16.734 17.923 C16.223 17.197 15.967 16.14 15.967 14.753 C15.967 13.233 16.233 12.088 16.764 11.318 C17.295 10.548 18.068 10.163 19.083 10.163 C21.028 10.163 22 11.627 22 14.554 C22 15.277 21.929 15.916 21.786 16.47 C21.643 17.024 21.439 17.49 21.174 17.869 C20.908 18.247 20.581 18.532 20.193 18.725 C19.805 18.917 19.369 19.013 18.884 19.013 Z M19.023 11.348 C17.908 11.348 17.351 12.47 17.351 14.713 C17.351 15.761 17.485 16.543 17.754 17.057 C18.023 17.572 18.439 17.829 19.003 17.829 C20.092 17.829 20.636 16.77 20.636 14.653 C20.636 13.545 20.5 12.717 20.228 12.169 C19.956 11.622 19.554 11.348 19.023 11.348 Z"/>
</svg>